<svg xmlns="http://www.w3.org/2000/svg" xmlns:xlink="http://www.w3.org/1999/xlink" version="1.1" id="&#1057;&#1083;&#1086;&#1081;_1" x="0px" y="0px" width="100px" height="100px" viewBox="5.0 -10.0 100.0 135.0" enable-background="new 0 0 100 100" xml:space="preserve">
<g>
	<path d="M92.984,56.618c-1.986-2.517-5.524-3.806-10.493-3.891c0.122-0.991,0.207-1.993,0.249-3.006   c0.04-0.3,0.063-0.606,0.063-0.917c0-0.155-0.019-0.306-0.029-0.458c0-0.049,0.004-0.097,0.004-0.146   c0-0.315-0.062-0.613-0.152-0.898C80.71,38.865,62.678,35,45.85,35C29.568,35,12.16,38.618,9.311,46.495   c-0.337,0.485-0.536,1.071-0.536,1.706c0,13.182,6.935,24.77,17.342,31.325c-2.748,1.741-3.342,3.728-3.342,5.097   c0,6.643,12.39,9,23,9s23-2.357,23-9c0-1.369-0.594-3.354-3.341-5.095c1.221-0.769,2.394-1.605,3.513-2.507   c0.002,0,0.003,0,0.005,0c4.866,0,21.517-0.803,25.026-11.593C95.416,61.009,94.231,58.198,92.984,56.618z M45.85,41   c19.758,0,30.257,5.12,30.92,7.566c-0.003,0.17-0.009,0.34-0.014,0.51c-0.299,0.983-2.159,2.383-5.539,3.711   c0.036-0.111,0.062-0.223,0.062-0.336c0-2.817-11.418-5.101-25.502-5.101s-25.501,2.284-25.501,5.101   c0,0.09,0.013,0.18,0.035,0.269c-3.591-1.435-5.415-2.946-5.415-3.916C14.896,46.47,25.427,41,45.85,41z M16.194,57.48   c7.198,3.482,18.682,5.127,29.655,5.127c10.887,0,22.272-1.619,29.48-5.045c-1.714,5.4-4.872,10.161-9.017,13.835   c-0.35,0.198-0.659,0.461-0.906,0.778c-5.35,4.389-12.188,7.027-19.631,7.027C31.913,79.203,20.147,70.056,16.194,57.48z    M62.17,84.556c0.052,0.031,0.101,0.063,0.146,0.092c-1.866,1.228-7.593,2.975-16.541,2.975S31.1,85.875,29.233,84.647   c0.045-0.029,0.094-0.061,0.146-0.092c0.913-0.562,1.411-1.533,1.42-2.531c4.583,2.037,9.648,3.179,14.978,3.179   c5.328,0,10.392-1.141,14.973-3.177C60.759,83.023,61.258,83.994,62.17,84.556z M88.272,63.572   c-1.429,4.393-7.608,6.309-13.087,7.049c2.695-3.526,4.769-7.549,6.062-11.905c4.108-0.109,6.319,0.723,7.027,1.619   C88.769,60.961,88.768,62.05,88.272,63.572z"/>
	<path d="M29.931,29.787C30.219,29.932,30.525,30,30.828,30c0.73,0,1.434-0.402,1.786-1.099c0.497-0.985,0.102-2.188-0.882-2.687   c-2-1.014-4.958-3.279-4.958-4.921c0-0.848,2.247-2.122,3.59-2.883c2.168-1.229,4.41-2.5,4.41-4.761   c0-3.043-4.481-6.544-7.153-8.36c-0.911-0.622-2.156-0.384-2.777,0.529c-0.621,0.913-0.385,2.157,0.528,2.778   c2.465,1.679,4.871,3.913,5.333,4.865c-0.443,0.409-1.548,1.035-2.313,1.468c-2.503,1.418-5.618,3.184-5.618,6.363   C22.774,26.047,29.198,29.417,29.931,29.787z"/>
	<path d="M46.875,29.787C47.163,29.932,47.47,30,47.772,30c0.73,0,1.434-0.402,1.786-1.099c0.497-0.985,0.102-2.188-0.882-2.687   c-2-1.014-4.958-3.279-4.958-4.921c0-0.848,2.247-2.122,3.59-2.883c2.168-1.229,4.41-2.5,4.41-4.761   c0-3.043-4.481-6.544-7.153-8.36c-0.912-0.622-2.157-0.384-2.777,0.529c-0.621,0.913-0.385,2.157,0.528,2.778   c2.465,1.679,4.871,3.913,5.333,4.865c-0.443,0.409-1.548,1.035-2.313,1.468c-2.503,1.418-5.618,3.184-5.618,6.363   C39.719,26.047,46.143,29.417,46.875,29.787z"/>
	<path d="M62.931,29.787C63.219,29.932,63.525,30,63.828,30c0.73,0,1.434-0.402,1.786-1.099c0.497-0.985,0.102-2.188-0.882-2.687   c-2-1.014-4.958-3.279-4.958-4.921c0-0.848,2.247-2.122,3.59-2.883c2.168-1.229,4.41-2.5,4.41-4.761   c0-3.043-4.481-6.544-7.153-8.36c-0.912-0.622-2.156-0.384-2.777,0.529c-0.621,0.913-0.385,2.157,0.528,2.778   c2.465,1.679,4.871,3.913,5.333,4.865c-0.443,0.409-1.548,1.035-2.313,1.468c-2.503,1.418-5.618,3.184-5.618,6.363   C55.774,26.047,62.198,29.417,62.931,29.787z"/>
</g>
<text x="0.0" y="117.5" font-size="5.0" font-weight="bold" font-family="Helvetica Neue, Helvetica, Arial-Unicode, Arial, Sans-serif" fill="#000000">Created by Ilsur Aptukov</text><text x="0.0" y="122.5" font-size="5.0" font-weight="bold" font-family="Helvetica Neue, Helvetica, Arial-Unicode, Arial, Sans-serif" fill="#000000">from the Noun Project</text></svg>