<svg xmlns="http://www.w3.org/2000/svg" xmlns:xlink="http://www.w3.org/1999/xlink" version="1.1" id="Layer_1" x="0px" y="0px" width="100px" height="62.39px" viewBox="5.0 -6.239 100.0 84.2265" enable-background="new 0 0 100 62.39" xml:space="preserve">
<path d="M94.076,18.162c2.24-6.501,0.27-13.076-4.4-14.685s-10.272,2.357-12.511,8.859c-0.837,2.431-1.086,4.871-0.825,7.059  c-6.721-1.573-15.123-2.415-24.228-2.217c-15.693,0.343-29.17,3.685-35.465,8.234c0.085,0.119,0.173,0.238,0.257,0.357  c1.17,1.669,2.229,3.467,3.103,5.246c6.022-3.326,18.177-5.776,32.246-6.079c20.146-0.449,36.588,3.662,36.714,9.175v0.126  c0.295-0.267,0.547-0.533,0.772-0.786c0.772-0.856,1.164-1.712,1.305-2.315c0.14-0.505,0.126-0.842,0.14-0.926  c0,0.07,0.028,0.407-0.07,0.94c-0.098,0.631-0.407,1.543-1.164,2.483c-0.295,0.379-0.645,0.772-1.052,1.136  c-1.613,1.529-4.083,3.016-7.085,4.223c-3.76,1.529-8.347,2.82-13.342,3.676c-4.98,0.856-10.368,1.361-15.769,1.515  c-5.401,0.084-10.802-0.182-15.825-0.828c-5.022-0.631-9.652-1.712-13.482-3.072c-0.893-0.315-1.734-0.657-2.528-1.016  c0.181-1.461-0.36-3.695-1.457-6.23c-0.885-2.046-2.129-4.277-3.654-6.464c-6.066-8.695-9.449-7.708-9.924-7.292  c-2.704,2.364,1.855,10.311,4.454,14.021c1.862,2.658,3.815,4.765,5.535,6.106c5.253,8.899,17.489,20.113,36.868,19.856  c29.251-0.393,39.422-22.531,39.254-29.798c-0.033-1.573-0.897-3.062-2.448-4.426C91.431,23.421,93.083,21.042,94.076,18.162z   M18.172,37.857c-0.804-0.493-1.517-1.005-2.116-1.529c-0.393-0.337-0.744-0.687-1.038-1.038c-0.786-0.912-1.15-1.81-1.277-2.427  c-0.098-0.463-0.098-0.772-0.098-0.898c0.014,0.126,0.042,0.435,0.182,0.884c0.168,0.589,0.589,1.417,1.403,2.259  c0.224,0.239,0.477,0.463,0.758,0.687c-0.014-0.028-0.014-0.042-0.014-0.07c-0.012-0.513,0.13-1.019,0.395-1.517  c-0.545-1.476-1.475-3.345-2.897-5.394c-0.412,0.782-0.643,1.581-0.626,2.395c0.036,1.544,0.662,3.714,1.869,6.166  c-1.286-0.996-2.756-2.577-4.162-4.578c-2.448-3.485-4.371-9.654-3.512-10.292c3.204-2.377,10.013,9.055,10.315,10.409  c0.001-0.001,0.001-0.001,0.001-0.001C18.278,35.093,18.604,36.915,18.172,37.857z M87.608,23.657  c-2.232-1.407-5.241-2.644-8.855-3.65c-0.595-2.045-0.541-4.537,0.313-7.016c1.736-5.039,6.102-8.105,9.751-6.847  c3.649,1.257,5.201,6.361,3.464,11.4C91.33,20.306,89.588,22.467,87.608,23.657z"/>
<polygon points="83.098,35.308 83.57,32.001 75.54,27.75 71.761,34.363 "/>
<path d="M53.768,35.428c-0.1,0.434-1.94,0.382-4.11-0.116s-2.053-0.842-1.953-1.276c0.1-0.434,0.143-0.794,2.314-0.296  C52.189,34.238,53.868,34.994,53.768,35.428z"/>
<path d="M62.833,28.441v7.872l2.834,0.157l0.011-0.012l6.13-6.601l-0.854-2.99c-0.787-0.113-5.759-0.317-5.759-0.317L62.833,28.441z  "/>
<path d="M23.702,39.416c3.652,1.298,7.962,2.299,12.505,2.918l1.465,0.081l1.417-8.03L21.14,34.858l-0.009,0.131  c0.396,1.23,0.693,2.534,0.69,3.693C22.442,38.948,23.072,39.194,23.702,39.416z"/>
<path d="M62.785,37.718c0.041,0.443-1.723,0.969-3.941,1.174s-2.213-0.158-2.254-0.602c-0.041-0.443-0.112-0.8,2.105-1.004  C60.913,37.081,62.744,37.274,62.785,37.718z"/>
<path d="M42.326,29.697c0.041,0.443-1.723,0.969-3.941,1.174c-2.217,0.205-2.213-0.158-2.254-0.602  c-0.041-0.443-0.112-0.8,2.105-1.004C40.454,29.06,42.285,29.254,42.326,29.697z"/>
<path d="M48.491,30.787c-0.196,0.4-1.976-0.069-3.976-1.048s-1.807-1.287-1.611-1.687s0.32-0.741,2.321,0.238  C47.224,29.269,48.687,30.387,48.491,30.787z"/>
<path d="M77.345,38.159c-0.1,0.434-1.94,0.382-4.11-0.116s-2.053-0.842-1.953-1.276c0.1-0.434,0.143-0.794,2.314-0.296  C75.766,36.969,77.444,37.725,77.345,38.159z"/>
<path d="M59.254,29.418c0.041,0.443-1.723,0.969-3.941,1.174s-2.213-0.158-2.254-0.602s-0.112-0.8,2.105-1.004  S59.213,28.975,59.254,29.418z"/>
<path d="M29.884,31.904c0.041,0.443-1.723,0.969-3.941,1.174s-2.213-0.158-2.254-0.602c-0.041-0.443-0.112-0.8,2.105-1.004  C28.012,31.268,29.843,31.461,29.884,31.904z"/>
<path d="M46.648,41.437c-0.196,0.4-1.976-0.069-3.976-1.048s-1.807-1.287-1.611-1.687s0.32-0.741,2.321,0.238  C45.381,39.919,46.844,41.037,46.648,41.437z"/>
<text x="0.0" y="73.30825" font-size="3.1195" font-weight="bold" font-family="Helvetica Neue, Helvetica, Arial-Unicode, Arial, Sans-serif" fill="#000000">Created by Claire Jones</text><text x="0.0" y="76.42775" font-size="3.1195" font-weight="bold" font-family="Helvetica Neue, Helvetica, Arial-Unicode, Arial, Sans-serif" fill="#000000">from the Noun Project</text></svg>