<svg xmlns="http://www.w3.org/2000/svg" xmlns:xlink="http://www.w3.org/1999/xlink" version="1.1" id="Calque_1" x="0px" y="0px" width="100px" height="100px" viewBox="5.0 -10.0 100.0 135.0" enable-background="new 0 0 100 100" xml:space="preserve">
<g>
	<path d="M9.003,77.925h82.221c2.094,0,3.791-1.697,3.791-3.791v-6.397c0-2.094-1.697-3.791-3.791-3.791h-4.45   c-4.661,5.254-11.931,8.443-19.944,8.443c-5.688,0-11.066-1.653-15.385-4.522c-4.319,2.869-9.698,4.522-15.385,4.522   c-7.918,0-15.238-3.203-19.925-8.443H9.003c-2.094,0-3.791,1.697-3.791,3.791v6.397C5.212,76.228,6.91,77.925,9.003,77.925z"/>
	<path d="M92.196,80.246c-1.831,0-3.316,1.486-3.316,3.317c0,2.396-1.95,4.346-4.345,4.346H16.906c-2.396,0-4.346-1.949-4.346-4.346   c0-1.831-1.486-3.317-3.317-3.317s-3.317,1.486-3.317,3.317c0,6.055,4.926,10.98,10.98,10.98h67.629   c6.054,0,10.979-4.926,10.979-10.98C95.514,81.732,94.028,80.246,92.196,80.246z"/>
	<path d="M8.778,58.969h6.697c3.746,6.729,11.742,11.05,20.585,11.05c5.818,0,11.267-1.873,15.385-5.065   c4.119,3.192,9.567,5.065,15.385,5.065c8.947,0,16.862-4.294,20.598-11.05h4.55c1.015,0,1.986-0.406,2.698-1.128   s1.105-1.698,1.093-2.713c-0.172-13.081-4.005-23.424-11.393-30.744c-7.822-7.75-19.262-11.68-33.999-11.68   s-26.175,3.93-33.998,11.68C8.991,31.704,5.159,42.048,4.987,55.128c-0.013,1.015,0.38,1.992,1.093,2.713   C6.792,58.563,7.764,58.969,8.778,58.969z M36.06,64.332c-5.429,0-10.39-2.03-13.572-5.363h23.756   c0.366,0.654,0.76,1.292,1.202,1.898C44.381,63.057,40.366,64.332,36.06,64.332z M66.83,64.332c-4.306,0-8.319-1.275-11.385-3.465   c0.441-0.606,0.836-1.244,1.2-1.898h23.757C77.219,62.28,72.227,64.332,66.83,64.332z M50.377,20.286   c23.028,0,35.968,10.73,37.631,31.101h-75.26C14.411,31.017,27.349,20.286,50.377,20.286z"/>
	<path d="M32.325,29.001c-2.139-0.716-3.94,0.908-3.94,0.908s0.456,2.383,2.595,3.102c2.138,0.716,3.941-0.908,3.941-0.908   S34.463,29.72,32.325,29.001z"/>
	<path d="M40.311,26.674c2.25-0.15,3.3-2.338,3.3-2.338s-1.329-2.03-3.58-1.882c-2.25,0.15-3.3,2.337-3.3,2.337   S38.06,26.822,40.311,26.674z"/>
	<path d="M45.686,31.562c-2.255,0-3.447,2.114-3.447,2.114s1.191,2.114,3.447,2.114c2.256,0,3.449-2.114,3.449-2.114   S47.942,31.562,45.686,31.562z"/>
	<path d="M69.563,29.535c-2.256,0-3.447,2.114-3.447,2.114s1.191,2.114,3.447,2.114s3.448-2.114,3.448-2.114   S71.819,29.535,69.563,29.535z"/>
	<path d="M69.191,37.845c-2.256,0-3.447,2.114-3.447,2.114s1.191,2.114,3.447,2.114s3.448-2.114,3.448-2.114   S71.447,37.845,69.191,37.845z"/>
	<path d="M78.276,32.245c0,0-2.112,1.198-2.107,3.454c0.006,2.255,2.122,3.442,2.122,3.442s2.112-1.196,2.106-3.451   C80.392,33.433,78.276,32.245,78.276,32.245z"/>
	<path d="M47.939,23.317c0,0-0.893,2.257,0.527,4.009c1.42,1.752,3.814,1.349,3.814,1.349s0.891-2.257-0.528-4.011   C50.332,22.912,47.939,23.317,47.939,23.317z"/>
	<path d="M36.509,39.64c-0.835,2.095,0.684,3.986,0.684,3.986s2.405-0.323,3.243-2.418c0.836-2.094-0.684-3.984-0.684-3.984   S37.345,37.544,36.509,39.64z"/>
	<path d="M23.597,35.064c-2.244,0.229-3.217,2.452-3.217,2.452s1.398,1.981,3.644,1.755c2.244-0.228,3.216-2.451,3.216-2.451   S25.841,34.835,23.597,35.064z"/>
	<path d="M56.863,33.406c-0.836,2.095,0.685,3.987,0.685,3.987s2.404-0.323,3.242-2.419c0.837-2.093-0.685-3.984-0.685-3.984   S57.699,31.311,56.863,33.406z"/>
	<path d="M61.236,22.768c-2.218-0.407-3.774,1.455-3.774,1.455s0.789,2.294,3.01,2.704c2.218,0.408,3.771-1.454,3.771-1.454   S63.455,23.176,61.236,22.768z"/>
</g>
<text x="0.0" y="117.5" font-size="5.0" font-weight="bold" font-family="Helvetica Neue, Helvetica, Arial-Unicode, Arial, Sans-serif" fill="#000000">Created by C&#233;dric Villain</text><text x="0.0" y="122.5" font-size="5.0" font-weight="bold" font-family="Helvetica Neue, Helvetica, Arial-Unicode, Arial, Sans-serif" fill="#000000">from the Noun Project</text></svg>