<svg xmlns="http://www.w3.org/2000/svg" xmlns:xlink="http://www.w3.org/1999/xlink" version="1.1" id="Layer_1" x="0px" y="0px" viewBox="5.0 -10.0 100.0 135.0" enable-background="new 0 0 100 100" xml:space="preserve" height="100px" width="100px">
<g>
	<polygon points="36.6,94.9 63,94.9 82.3,82.1 17.3,82.1  "/>
	<path d="M85.7,72.7c-0.1-0.3-0.2-0.5-0.4-0.7c-1.4-1.4-2.9-2.5-4.6-3.4c0.6-3.1-0.4-6.4-2.6-9.4c0.7-1.1,1.1-2.3,1.1-3.7   c0-3.7-3-6.7-6.7-6.7c-2.4,0-4.4,1.2-5.6,3.1c-2.6-0.6-5.4-0.8-8.3-0.3c-8-6.4-17.8-6.8-24.3-0.9c-9,0.6-17.8,8.1-19.3,22H4.8   l5.4,8.4h79.2l5.4-8.4H85.7z M43.4,72.7c2.5-8.4-1-16-6.1-20.3c0.4-0.3,0.8-0.6,1.3-0.9c6.8,4.7,9.5,13.3,7,21.1H43.4z M29.6,72.7   c2.5-3.8,6.6-6.4,11.2-7c0.2,2.4-0.2,4.7-0.9,7H29.6z M23.5,72.7c0.2-1.2,0.5-2.3,1-3.3c0.5,0.8,1.1,1.6,1.9,2.2   c-0.2,0.4-0.4,0.8-0.6,1.2H23.5z M38.9,59.4c0.5,1,0.9,2,1.2,3c-0.6,0.1-1.2,0.2-1.8,0.3c-0.5-1.2-1.2-2.3-2.1-3.1   C37.1,59.5,38,59.4,38.9,59.4L38.9,59.4z M43.5,50.1c4.3,3,7,7.9,7.8,12.9c-0.6,0.5-1.2,1-1.7,1.6c-0.5-5.6-3.2-10.8-7.6-14.5   c0.4-0.1,0.8-0.2,1.2-0.2C43.3,50,43.4,50.1,43.5,50.1z M63.5,68.1c-0.6-3.7-3.8-6.6-7.6-6.6c-0.5,0-0.9,0-1.4,0.1   c-0.1-0.5-0.2-0.9-0.3-1.4c3.5-1.2,7.4-1.1,10.9,0.3c3,1.2,5.5,3.2,7.3,5.8C69.4,66.2,66.3,66.8,63.5,68.1z M63.1,72.1   c5.5-3.5,12.6-3.3,17.9,0.6H62.8C62.9,72.5,63,72.3,63.1,72.1z M71.8,57.7c3.8,2.6,6,6.4,5.7,9.6c-0.3-0.1-0.6-0.2-0.9-0.3   c-2.1-4.4-5.7-7.8-10.3-9.5c-4.2-1.7-8.8-1.8-13.1-0.3c0,0,0,0,0,0C60.1,52.8,67.3,54.6,71.8,57.7z M51.6,54.1   c-0.9-1.4-1.9-2.8-3.1-4c1.9,0.4,3.9,1.3,5.9,2.6C53.5,53.1,52.6,53.6,51.6,54.1z M34,54c0.1,0.2,0.2,0.3,0.4,0.4   c0.8,0.6,1.5,1.2,2.2,1.9c-1.8,0.2-3.6,0.8-5.3,1.5c0,0-0.1,0-0.1,0c-3.8,0-7,2.8-7.6,6.4c-1.8,2.5-3,5.3-3.4,8.4h-1.8   C19.5,63.2,24.9,54.7,34,54z"/>
	<path d="M58.2,30.8c0.7,2,1.4,3.8,1.2,6c-0.2,2.2-0.8,3-1.5,3.9c-0.2,0.3-0.5,0.6-0.7,0.9c-0.4,0.6-0.2,1.3,0.3,1.7   c0.2,0.1,0.5,0.2,0.7,0.2c0.4,0,0.8-0.2,1-0.6c0.2-0.3,0.4-0.5,0.5-0.7c0.8-1,1.8-2.3,2.1-5.3c0.2-2.7-0.5-4.9-1.3-7   c-0.3-0.9-0.7-1.9-0.9-2.9c-0.9-3.4-0.4-4.3-0.2-4.5c0,0,0.1-0.2,0.5-0.1c0.7,0,1.3-0.5,1.3-1.2c0-0.7-0.5-1.3-1.2-1.3   c-1.3-0.1-2.1,0.5-2.5,1.1c-1.3,1.6-0.8,4.6-0.2,6.7C57.5,28.8,57.9,29.8,58.2,30.8z"/>
	<path d="M50.6,22.5c0.7,2,1.4,3.8,1.2,6c-0.2,2.2-0.8,3-1.5,3.9c-0.2,0.3-0.5,0.6-0.7,0.9c-0.4,0.6-0.2,1.3,0.3,1.7   c0.2,0.1,0.5,0.2,0.7,0.2c0.4,0,0.8-0.2,1-0.6c0.2-0.3,0.4-0.5,0.5-0.7c0.8-1,1.8-2.3,2.1-5.3c0.2-2.7-0.5-4.9-1.3-7   c-0.3-0.9-0.7-1.9-0.9-2.9c-0.9-3.4-0.4-4.3-0.2-4.5c0,0,0.1-0.2,0.5-0.1c0.7,0,1.3-0.5,1.3-1.2c0-0.7-0.5-1.3-1.2-1.3   c-1.3,0-2.1,0.5-2.5,1.1c-1.3,1.6-0.8,4.6-0.2,6.7C49.8,20.5,50.2,21.5,50.6,22.5z"/>
	<path d="M43.1,30.8c0.7,2,1.4,3.8,1.2,6c-0.2,2.2-0.8,3-1.5,3.9c-0.2,0.3-0.5,0.6-0.7,0.9c-0.4,0.6-0.2,1.3,0.3,1.7   c0.2,0.1,0.5,0.2,0.7,0.2c0.4,0,0.8-0.2,1-0.6c0.2-0.3,0.4-0.5,0.5-0.7c0.8-1,1.8-2.3,2.1-5.3c0.2-2.7-0.5-4.9-1.3-7   c-0.3-0.9-0.7-1.9-0.9-2.9c-0.9-3.4-0.4-4.3-0.2-4.5c0,0,0.1-0.2,0.5-0.1c0.7,0,1.3-0.5,1.3-1.2c0-0.7-0.5-1.3-1.2-1.3   c-1.3-0.1-2.1,0.5-2.5,1.1c-1.3,1.6-0.8,4.6-0.2,6.7C42.4,28.8,42.8,29.8,43.1,30.8z"/>
</g>
<text x="0.0" y="117.5" font-size="5.0" font-weight="bold" font-family="Helvetica Neue, Helvetica, Arial-Unicode, Arial, Sans-serif" fill="#000000">Created by Peter Chlebak</text><text x="0.0" y="122.5" font-size="5.0" font-weight="bold" font-family="Helvetica Neue, Helvetica, Arial-Unicode, Arial, Sans-serif" fill="#000000">from the Noun Project</text></svg>