<svg xmlns="http://www.w3.org/2000/svg" xmlns:xlink="http://www.w3.org/1999/xlink" version="1.1" id="Layer_1" x="0px" y="0px" width="100px" height="100px" viewBox="5.0 -10.0 100.0 135.0" enable-background="new 0 0 100 100" xml:space="preserve">
<g>
	<path d="M49.91,10.233c-22.223,0-40.302,18.08-40.302,40.303c0,22.222,18.08,40.301,40.302,40.301s40.302-18.079,40.302-40.301   C90.212,28.313,72.133,10.233,49.91,10.233z M49.91,87.837c-20.568,0-37.302-16.733-37.302-37.301   c0-20.569,16.734-37.303,37.302-37.303s37.302,16.734,37.302,37.303C87.212,71.104,70.479,87.837,49.91,87.837z"/>
	<path d="M74.574,36.769V25.921c0-2.082-1.693-3.776-3.775-3.776H38.343c-2.081,0-3.774,1.694-3.774,3.776v0.906   c-8.094,5.237-12.909,14.029-12.909,23.709c0,6.319,2.152,12.48,6.043,17.433v4.974c0,2.083,1.693,3.777,3.774,3.777H39.3   c3.371,1.367,6.938,2.066,10.61,2.066s7.238-0.699,10.61-2.066h3.411c2.083,0,3.777-1.694,3.777-3.777v-0.48   c6.647-5.394,10.452-13.337,10.452-21.926C78.161,45.707,76.916,40.959,74.574,36.769z M75.161,50.536   c0,1.85-0.204,3.665-0.587,5.425V45.164C74.956,46.922,75.161,48.722,75.161,50.536z M37.568,34.023h6.626v2.691h-6.626V34.023z    M71.574,50.274h-3.865v-7.001h3.865V50.274z M64.709,55.59h-4.303c0.188-0.565,0.293-1.168,0.293-1.796v-4.79   c0-0.14-0.011-0.277-0.021-0.415h4.031V55.59z M46.579,39.714v4.858c-0.594,0.484-1.087,1.085-1.448,1.767h-5.552v-6.625H46.579z    M55.832,39.714v3.642c-0.279-0.042-0.562-0.071-0.853-0.071h-4.79c-0.47,0-0.923,0.063-1.36,0.17v-3.741H55.832z M63.932,39.714   c0.429,0,0.777,0.347,0.777,0.774v5.851h-4.672c-0.459-0.868-1.135-1.602-1.955-2.133v-4.492H63.932z M44.489,48.589   c-0.01,0.137-0.021,0.274-0.021,0.415v4.79c0,0.628,0.105,1.23,0.293,1.796h-5.183v-7H44.489z M47.468,53.794v-4.79   c0-1.5,1.221-2.719,2.721-2.719h4.79c1.5,0,2.72,1.22,2.72,2.719v4.79c0,1.5-1.22,2.72-2.72,2.72h-4.79   C48.689,56.514,47.468,55.294,47.468,53.794z M71.574,41.023h-3.865v-0.535c0-1.727-1.173-3.17-2.76-3.618v-2.848h6.625V41.023z    M62.699,36.714h-7.003v-2.691h7.003V36.714z M55.696,31.773v-6.627h7.003v6.627H55.696z M53.446,31.773h-7.002v-6.627h7.002   V31.773z M53.446,34.023v2.691h-7.002v-2.691H53.446z M37.329,39.714v6.625h-6.626v-5.851c0-0.427,0.347-0.774,0.774-0.774H37.329z    M30.703,48.589h6.626v7h-6.626V48.589z M30.703,57.84h6.626v7.004h-6.626V57.84z M39.579,57.84h6.571   c0.136,0.136,0.28,0.265,0.43,0.387v6.617h-7V57.84z M46.579,67.094v6.626h-7v-6.626H46.579z M48.829,73.72v-6.626h7.003v6.626   H48.829z M48.829,64.844v-5.5c0.437,0.106,0.891,0.17,1.36,0.17h4.79c0.29,0,0.573-0.028,0.853-0.07v5.4H48.829z M58.082,58.593   c0.338-0.22,0.653-0.47,0.937-0.753h5.69v7.004h-6.627V58.593z M67.709,52.524h3.865v5.852c0,0.429-0.348,0.777-0.775,0.777h-3.09   V52.524z M71.574,25.921v5.852h-6.625v-6.627h5.85C71.227,25.146,71.574,25.494,71.574,25.921z M38.343,25.146h5.852v6.627h-6.626   v-5.852C37.568,25.494,37.916,25.146,38.343,25.146z M24.659,50.536c0-7.981,3.663-15.287,9.909-20.049v6.227h-3.091   c-2.081,0-3.774,1.693-3.774,3.774V62.52C25.73,58.858,24.659,54.737,24.659,50.536z M30.703,72.942v-5.849h6.626v6.626h-5.852   C31.05,73.72,30.703,73.371,30.703,72.942z M63.932,73.72h-5.85v-6.626h6.627v5.849C64.709,73.371,64.36,73.72,63.932,73.72z    M67.709,68.445v-6.292h3.09c0.651,0,1.256-0.181,1.791-0.473C71.366,64.171,69.721,66.454,67.709,68.445z"/>
</g>
<text x="0.0" y="117.5" font-size="5.0" font-weight="bold" font-family="Helvetica Neue, Helvetica, Arial-Unicode, Arial, Sans-serif" fill="#000000">Created by Isabel Foo</text><text x="0.0" y="122.5" font-size="5.0" font-weight="bold" font-family="Helvetica Neue, Helvetica, Arial-Unicode, Arial, Sans-serif" fill="#000000">from the Noun Project</text></svg>